<?xml version="1.0" encoding="UTF-8" standalone="no"?>
<!-- Created with Inkscape (http://www.inkscape.org/) -->

<svg
   xmlns:dc="http://purl.org/dc/elements/1.1/"
   xmlns:cc="http://creativecommons.org/ns#"
   xmlns:rdf="http://www.w3.org/1999/02/22-rdf-syntax-ns#"
   xmlns:svg="http://www.w3.org/2000/svg"
   xmlns="http://www.w3.org/2000/svg"
   xmlns:sodipodi="http://sodipodi.sourceforge.net/DTD/sodipodi-0.dtd"
   xmlns:inkscape="http://www.inkscape.org/namespaces/inkscape"
   width="460"
   height="460"
   id="svg3090"
   version="1.1"
   inkscape:version="0.48.2 r9819"
   sodipodi:docname="pattern_max.svg"
   inkscape:export-filename="/home/mfshick/Documents/Code/Android/lockpatterngenerator/res/drawable-ldpi/pref_pattern_max.png"
   inkscape:export-xdpi="7.0434785"
   inkscape:export-ydpi="7.0434785">
  <defs
     id="defs3092" />
  <sodipodi:namedview
     id="base"
     pagecolor="#ffffff"
     bordercolor="#666666"
     borderopacity="1.0"
     inkscape:pageopacity="0.0"
     inkscape:pageshadow="2"
     inkscape:zoom="0.7"
     inkscape:cx="299.33813"
     inkscape:cy="247.61685"
     inkscape:document-units="px"
     inkscape:current-layer="layer1"
     showgrid="false"
     fit-margin-top="0"
     fit-margin-left="0"
     fit-margin-right="0"
     fit-margin-bottom="0"
     inkscape:window-width="1278"
     inkscape:window-height="798"
     inkscape:window-x="0"
     inkscape:window-y="0"
     inkscape:window-maximized="0" />
  <metadata
     id="metadata3095">
    <rdf:RDF>
      <cc:Work
         rdf:about="">
        <dc:format>image/svg+xml</dc:format>
        <dc:type
           rdf:resource="http://purl.org/dc/dcmitype/StillImage" />
        <dc:title></dc:title>
      </cc:Work>
    </rdf:RDF>
  </metadata>
  <g
     inkscape:label="Layer 1"
     inkscape:groupmode="layer"
     id="layer1"
     transform="translate(-119.05339,-91.407589)">
    <path
       style="color:#000000;fill:#a3a3a3;fill-opacity:1;fill-rule:nonzero;stroke:none;stroke-width:0;marker:none;visibility:visible;display:inline;overflow:visible;enable-background:accumulate"
       d="M 70 201 C 53.98374 201 41 213.98374 41 230 C 41 246.01626 53.98374 259 70 259 C 86.01626 259 99 246.01626 99 230 C 99 213.98374 86.01626 201 70 201 z "
       transform="translate(119.05339,91.407589)"
       id="rect4217" />
    <path
       inkscape:connector-curvature="0"
       style="color:#000000;fill:#a3a3a3;fill-opacity:1;fill-rule:nonzero;stroke:none;stroke-width:0;marker:none;visibility:visible;display:inline;overflow:visible;enable-background:accumulate"
       d="m 189.05339,411.40759 c -38.65993,0 -70,31.34007 -70,70 0,38.65993 31.34007,70 70,70 38.65993,0 70,-31.34007 70,-70 0,-38.65993 -31.34007,-70 -70,-70 z m 0,41 c 16.01626,0 29,12.98374 29,29 0,16.01626 -12.98374,29 -29,29 -16.01626,0 -29,-12.98374 -29,-29 0,-16.01626 12.98374,-29 29,-29 z"
       id="path2985-0" />
    <path
       id="path2990"
       d="m 349.05339,411.40759 c -38.65993,0 -70,31.34007 -70,70 0,38.65993 31.34007,70 70,70 38.65993,0 70,-31.34007 70,-70 0,-38.65993 -31.34007,-70 -70,-70 z m 0,41 c 16.01626,0 29,12.98374 29,29 0,16.01626 -12.98374,29 -29,29 -16.01626,0 -29,-12.98374 -29,-29 0,-16.01626 12.98374,-29 29,-29 z"
       style="color:#000000;fill:#a3a3a3;fill-opacity:1;fill-rule:nonzero;stroke:none;stroke-width:0;marker:none;visibility:visible;display:inline;overflow:visible;enable-background:accumulate"
       inkscape:connector-curvature="0" />
    <path
       inkscape:connector-curvature="0"
       style="color:#000000;fill:#a3a3a3;fill-opacity:1;fill-rule:nonzero;stroke:none;stroke-width:0;marker:none;visibility:visible;display:inline;overflow:visible;enable-background:accumulate"
       d="m 509.05339,411.40759 c -38.65993,0 -70,31.34007 -70,70 0,38.65993 31.34007,70 70,70 38.65993,0 70,-31.34007 70,-70 0,-38.65993 -31.34007,-70 -70,-70 z m 0,41 c 16.01626,0 29,12.98374 29,29 0,16.01626 -12.98374,29 -29,29 -16.01626,0 -29,-12.98374 -29,-29 0,-16.01626 12.98374,-29 29,-29 z"
       id="path2992" />
    <path
       inkscape:connector-curvature="0"
       style="color:#000000;fill:#a3a3a3;fill-opacity:1;fill-rule:nonzero;stroke:none;stroke-width:0;marker:none;visibility:visible;display:inline;overflow:visible;enable-background:accumulate"
       d="m 509.05339,251.40759 c -38.65993,0 -70,31.34007 -70,70 0,38.65993 31.34007,70 70,70 38.65993,0 70,-31.34007 70,-70 0,-38.65993 -31.34007,-70 -70,-70 z m 0,41 c 16.01626,0 29,12.98374 29,29 0,16.01626 -12.98374,29 -29,29 -16.01626,0 -29,-12.98374 -29,-29 0,-16.01626 12.98374,-29 29,-29 z"
       id="path2992-7" />
    <path
       id="path2990-9"
       d="m 349.05339,91.407589 c -38.65993,0 -70,31.340071 -70,70.000001 0,38.65993 31.34007,70 70,70 38.65993,0 70,-31.34007 70,-70 0,-38.65993 -31.34007,-70.000001 -70,-70.000001 z m 0,41.000001 c 16.01626,0 29,12.98374 29,29 0,16.01626 -12.98374,29 -29,29 -16.01626,0 -29,-12.98374 -29,-29 0,-16.01626 12.98374,-29 29,-29 z"
       style="color:#000000;fill:#a3a3a3;fill-opacity:1;fill-rule:nonzero;stroke:none;stroke-width:0;marker:none;visibility:visible;display:inline;overflow:visible;enable-background:accumulate"
       inkscape:connector-curvature="0" />
    <path
       id="path4220"
       d="m 189.05339,132.40759 c -16.01626,0 -29,12.98374 -29,29 0,16.01626 12.98374,29 29,29 16.01626,0 29,-12.98374 29,-29 0,-16.01626 -12.98374,-29 -29,-29 z"
       style="color:#000000;fill:#a3a3a3;fill-opacity:1;fill-rule:nonzero;stroke:none;stroke-width:0;marker:none;visibility:visible;display:inline;overflow:visible;enable-background:accumulate"
       inkscape:connector-curvature="0" />
    <path
       id="path4222"
       d="m 349.05339,292.40759 c -16.01626,0 -29,12.98374 -29,29 0,16.01626 12.98374,29 29,29 16.01626,0 29,-12.98374 29,-29 0,-16.01626 -12.98374,-29 -29,-29 z"
       style="color:#000000;fill:#a3a3a3;fill-opacity:1;fill-rule:nonzero;stroke:none;stroke-width:0;marker:none;visibility:visible;display:inline;overflow:visible;enable-background:accumulate"
       inkscape:connector-curvature="0" />
    <path
       inkscape:connector-curvature="0"
       style="color:#000000;fill:#a3a3a3;fill-opacity:1;fill-rule:nonzero;stroke:none;stroke-width:0;marker:none;visibility:visible;display:inline;overflow:visible;enable-background:accumulate"
       d="m 509.05339,132.40759 c -16.01626,0 -29,12.98374 -29,29 0,16.01626 12.98374,29 29,29 16.01626,0 29,-12.98374 29,-29 0,-16.01626 -12.98374,-29 -29,-29 z"
       id="path4224" />
  </g>
</svg>
