<?xml version="1.0" encoding="UTF-8" standalone="no"?>
<svg
   xmlns:dc="http://purl.org/dc/elements/1.1/"
   xmlns:cc="http://creativecommons.org/ns#"
   xmlns:rdf="http://www.w3.org/1999/02/22-rdf-syntax-ns#"
   xmlns:svg="http://www.w3.org/2000/svg"
   xmlns="http://www.w3.org/2000/svg"
   xmlns:sodipodi="http://sodipodi.sourceforge.net/DTD/sodipodi-0.dtd"
   xmlns:inkscape="http://www.inkscape.org/namespaces/inkscape"
   height="150"
   width="150"
   id="svg3004"
   version="1.1"
   inkscape:version="0.48.2 r9819"
   sodipodi:docname="confused_andy.svgz">
  <metadata
     id="metadata3018">
    <rdf:RDF>
      <cc:Work
         rdf:about="">
        <dc:format>image/svg+xml</dc:format>
        <dc:type
           rdf:resource="http://purl.org/dc/dcmitype/StillImage" />
        <dc:title></dc:title>
      </cc:Work>
    </rdf:RDF>
  </metadata>
  <defs
     id="defs3016" />
  <sodipodi:namedview
     pagecolor="#ffffff"
     bordercolor="#666666"
     borderopacity="1"
     objecttolerance="10"
     gridtolerance="10"
     guidetolerance="10"
     inkscape:pageopacity="0"
     inkscape:pageshadow="2"
     inkscape:window-width="1918"
     inkscape:window-height="1078"
     id="namedview3014"
     showgrid="false"
     fit-margin-top="14.51"
     fit-margin-left="15.12"
     fit-margin-right="15.12"
     fit-margin-bottom="14.51"
     inkscape:zoom="4.1622876"
     inkscape:cx="42.314138"
     inkscape:cy="80.67236"
     inkscape:window-x="0"
     inkscape:window-y="0"
     inkscape:window-maximized="0"
     inkscape:current-layer="svg3004" />
  <g
     id="g3766"
     transform="matrix(1.7225499,0,0,1.7225499,0.02325642,0.02573786)">
    <path
       style="fill:#a3a3a3;fill-opacity:1"
       inkscape:connector-curvature="0"
       id="path3006"
       d="m 23.464,46.614197 4.062,7.0627 c -7.394,3.6269 -12.406,10.728 -12.406,18.875 h 23.656 23.656 c 0,-8.1468 -5.012,-15.248 -12.406,-18.875 l 4.063,-7.0626 c 0,0 0.19231,-0.37509 -0.17225,-0.58569 -0.365,-0.21059 -0.61,0.14869 -0.61,0.14869 l -4.125,7.1248 c -3.141,-1.3979 -6.6721,-2.1875 -10.406,-2.1875 -3.7341,0 -7.2653,0.7896 -10.406,2.1875 l -4.125,-7.1248 c 0,0 -0.23006,-0.35939 -0.59737,-0.14971 -0.368,0.20967 -0.184,0.58671 -0.184,0.58671 z m 4.062,13.68 c 1.2395,0 2.25,1.0105 2.25,2.25 -10e-6,1.2395 -1.0105,2.2188 -2.25,2.2188 -1.2395,0 -2.25,-0.97928 -2.25,-2.2188 0,-1.23952 1.0105,-2.25 2.25,-2.25 z m 22.5,0 c 1.2395,0 2.25,1.0105 2.25,2.25 -1e-5,1.2395 -1.0105,2.2188 -2.25,2.2188 -1.2395,0 -2.25,-0.97928 -2.25,-2.2188 0,-1.23952 1.0105,-2.25 2.25,-2.25 z" />
    <g
       id="g3762">
      <path
         sodipodi:type="arc"
         style="fill:#a3a3a3;fill-opacity:1;stroke:none"
         id="path3020"
         sodipodi:cx="48.332047"
         sodipodi:cy="28.115829"
         sodipodi:rx="4.1621623"
         sodipodi:ry="4.1621623"
         d="m 52.494209,28.115829 c 0,2.298699 -1.863464,4.162163 -4.162162,4.162163 -2.298699,0 -4.162163,-1.863464 -4.162163,-4.162163 0,-2.298698 1.863464,-4.162162 4.162163,-4.162162 2.298698,0 4.162162,1.863464 4.162162,4.162162 z"
         transform="matrix(0.93877551,0,0,0.93877551,4.927531,13.66861)" />
      <path
         style="fill:#a3a3a3;fill-opacity:1;stroke:none"
         d="m 61.90625,14.5 c -2.502441,-0.04432 -5.020439,0.8474 -7,2.625 l 3.78125,3.65625 c 1.906557,-1.712044 4.852712,-1.686817 6.71875,0.125 1.782587,1.730791 1.961612,4.488312 0.53125,6.4375 l -0.15625,0.1875 c -1.384568,1.521557 -3.571714,1.760419 -6.03125,2.0625 -2.459536,0.302081 -5.178629,0.684914 -7.28125,2.78125 l -0.34375,0.34375 0.34375,0.375 L 56.5,37 56.84375,37.34375 57.1875,37 c 1.922675,-1.8596 4.219067,-2.555883 6.40625,-3.09375 2.187183,-0.537867 4.284235,-0.895455 5.65625,-2.34375 l 0.25,-0.25 0.03125,0 L 69.5625,31.25 C 72.952275,27.188003 72.701784,21.152181 68.84375,17.40625 66.906259,15.525056 64.408691,14.54432 61.90625,14.5 z"
         id="path3792"
         inkscape:connector-curvature="0" />
    </g>
  </g>
</svg>
