<?xml version="1.0" encoding="UTF-8" standalone="no"?>
<!-- Created with Inkscape (http://www.inkscape.org/) -->

<svg
   xmlns:dc="http://purl.org/dc/elements/1.1/"
   xmlns:cc="http://creativecommons.org/ns#"
   xmlns:rdf="http://www.w3.org/1999/02/22-rdf-syntax-ns#"
   xmlns:svg="http://www.w3.org/2000/svg"
   xmlns="http://www.w3.org/2000/svg"
   xmlns:sodipodi="http://sodipodi.sourceforge.net/DTD/sodipodi-0.dtd"
   xmlns:inkscape="http://www.inkscape.org/namespaces/inkscape"
   width="460"
   height="460"
   id="svg4040"
   version="1.1"
   inkscape:version="0.48.2 r9819"
   sodipodi:docname="pattern_min.svg"
   inkscape:export-filename="/home/mfshick/Documents/Code/Android/lockpatterngenerator/res/drawable-ldpi/pref_pattern_min.png"
   inkscape:export-xdpi="7.0434785"
   inkscape:export-ydpi="7.0434785">
  <defs
     id="defs4042" />
  <sodipodi:namedview
     id="base"
     pagecolor="#ffffff"
     bordercolor="#666666"
     borderopacity="1.0"
     inkscape:pageopacity="0.0"
     inkscape:pageshadow="2"
     inkscape:zoom="0.7"
     inkscape:cx="215.67731"
     inkscape:cy="248.98988"
     inkscape:document-units="px"
     inkscape:current-layer="layer1"
     showgrid="false"
     fit-margin-top="0"
     fit-margin-left="0"
     fit-margin-right="0"
     fit-margin-bottom="0"
     inkscape:window-width="1278"
     inkscape:window-height="798"
     inkscape:window-x="0"
     inkscape:window-y="0"
     inkscape:window-maximized="0" />
  <metadata
     id="metadata4045">
    <rdf:RDF>
      <cc:Work
         rdf:about="">
        <dc:format>image/svg+xml</dc:format>
        <dc:type
           rdf:resource="http://purl.org/dc/dcmitype/StillImage" />
        <dc:title></dc:title>
      </cc:Work>
    </rdf:RDF>
  </metadata>
  <g
     inkscape:label="Layer 1"
     inkscape:groupmode="layer"
     id="layer1"
     transform="translate(215.92857,-368.69074)">
    <path
       style="color:#000000;fill:#a3a3a3;fill-opacity:1;fill-rule:nonzero;stroke:none;stroke-width:0;marker:none;visibility:visible;display:inline;overflow:visible;enable-background:accumulate"
       d="M 70 41 C 53.98374 41 41 53.98374 41 70 C 41 86.01626 53.98374 99 70 99 C 86.01626 99 99 86.01626 99 70 C 99 53.98374 86.01626 41 70 41 z "
       transform="translate(-215.92857,368.69074)"
       id="rect4226" />
    <path
       inkscape:connector-curvature="0"
       style="color:#000000;fill:#a3a3a3;fill-opacity:1;fill-rule:nonzero;stroke:none;stroke-width:0;marker:none;visibility:visible;display:inline;overflow:visible;enable-background:accumulate"
       d="m 174.07143,528.69074 c -38.65993,0 -70,31.34007 -70,70 0,38.65993 31.34007,70 70,70 38.65993,0 70,-31.34007 70,-70 0,-38.65993 -31.34007,-70 -70,-70 z m 0,41 c 16.01626,0 29,12.98374 29,29 0,16.01626 -12.98374,29 -29,29 -16.01626,0 -29,-12.98374 -29,-29 0,-16.01626 12.98374,-29 29,-29 z"
       id="path2992-7-2" />
    <path
       id="path2990-9-8"
       d="m 14.07143,368.69074 c -38.65993,0 -70,31.34007 -70,70 0,38.65993 31.34007,70 70,70 38.65993,0 70,-31.34007 70,-70 0,-38.65993 -31.34007,-70 -70,-70 z m 0,41 c 16.01626,0 29,12.98374 29,29 0,16.01626 -12.98374,29 -29,29 -16.0162601,0 -29,-12.98374 -29,-29 0,-16.01626 12.9837399,-29 29,-29 z"
       style="color:#000000;fill:#a3a3a3;fill-opacity:1;fill-rule:nonzero;stroke:none;stroke-width:0;marker:none;visibility:visible;display:inline;overflow:visible;enable-background:accumulate"
       inkscape:connector-curvature="0" />
    <path
       id="path4229"
       d="m 174.07143,409.69074 c -16.01626,0 -29,12.98374 -29,29 0,16.01626 12.98374,29 29,29 16.01626,0 29,-12.98374 29,-29 0,-16.01626 -12.98374,-29 -29,-29 z"
       style="color:#000000;fill:#a3a3a3;fill-opacity:1;fill-rule:nonzero;stroke:none;stroke-width:0;marker:none;visibility:visible;display:inline;overflow:visible;enable-background:accumulate"
       inkscape:connector-curvature="0" />
    <path
       id="path4231"
       d="m -145.92857,569.69074 c -16.01626,0 -29,12.98374 -29,29 0,16.01626 12.98374,29 29,29 16.01626,0 29,-12.98374 29,-29 0,-16.01626 -12.98374,-29 -29,-29 z"
       style="color:#000000;fill:#a3a3a3;fill-opacity:1;fill-rule:nonzero;stroke:none;stroke-width:0;marker:none;visibility:visible;display:inline;overflow:visible;enable-background:accumulate"
       inkscape:connector-curvature="0" />
    <path
       id="path4233"
       d="m -145.92857,729.69074 c -16.01626,0 -29,12.98374 -29,29 0,16.01626 12.98374,29 29,29 16.01626,0 29,-12.98374 29,-29 0,-16.01626 -12.98374,-29 -29,-29 z"
       style="color:#000000;fill:#a3a3a3;fill-opacity:1;fill-rule:nonzero;stroke:none;stroke-width:0;marker:none;visibility:visible;display:inline;overflow:visible;enable-background:accumulate"
       inkscape:connector-curvature="0" />
    <path
       inkscape:connector-curvature="0"
       style="color:#000000;fill:#a3a3a3;fill-opacity:1;fill-rule:nonzero;stroke:none;stroke-width:0;marker:none;visibility:visible;display:inline;overflow:visible;enable-background:accumulate"
       d="m 14.07143,569.69074 c -16.01626,0 -29,12.98374 -29,29 0,16.01626 12.98374,29 29,29 16.01626,0 29,-12.98374 29,-29 0,-16.01626 -12.98374,-29 -29,-29 z"
       id="path4235" />
    <path
       inkscape:connector-curvature="0"
       style="color:#000000;fill:#a3a3a3;fill-opacity:1;fill-rule:nonzero;stroke:none;stroke-width:0;marker:none;visibility:visible;display:inline;overflow:visible;enable-background:accumulate"
       d="m 174.07143,729.69074 c -16.01626,0 -29,12.98374 -29,29 0,16.01626 12.98374,29 29,29 16.01626,0 29,-12.98374 29,-29 0,-16.01626 -12.98374,-29 -29,-29 z"
       id="path4237" />
    <path
       id="path4239"
       d="m 14.07143,729.69074 c -16.01626,0 -29,12.98374 -29,29 0,16.01626 12.98374,29 29,29 16.01626,0 29,-12.98374 29,-29 0,-16.01626 -12.98374,-29 -29,-29 z"
       style="color:#000000;fill:#a3a3a3;fill-opacity:1;fill-rule:nonzero;stroke:none;stroke-width:0;marker:none;visibility:visible;display:inline;overflow:visible;enable-background:accumulate"
       inkscape:connector-curvature="0" />
  </g>
</svg>
