<?xml version="1.0" encoding="UTF-8" standalone="no"?>
<!-- Created with Inkscape (http://www.inkscape.org/) -->

<svg
   xmlns:dc="http://purl.org/dc/elements/1.1/"
   xmlns:cc="http://creativecommons.org/ns#"
   xmlns:rdf="http://www.w3.org/1999/02/22-rdf-syntax-ns#"
   xmlns:svg="http://www.w3.org/2000/svg"
   xmlns="http://www.w3.org/2000/svg"
   xmlns:sodipodi="http://sodipodi.sourceforge.net/DTD/sodipodi-0.dtd"
   xmlns:inkscape="http://www.inkscape.org/namespaces/inkscape"
   width="276"
   height="276"
   id="svg2"
   version="1.1"
   inkscape:version="0.48.2 r9819"
   sodipodi:docname="launcher_icon.svgz"
   inkscape:export-filename="/home/mfshick/Documents/Code/Android/lockpatterngenerator/res/drawable-xhdpi/icon.png"
   inkscape:export-xdpi="31.304348"
   inkscape:export-ydpi="31.304348">
  <defs
     id="defs4" />
  <sodipodi:namedview
     id="base"
     pagecolor="#ffffff"
     bordercolor="#666666"
     borderopacity="1.0"
     inkscape:pageopacity="0.0"
     inkscape:pageshadow="2"
     inkscape:zoom="2"
     inkscape:cx="89.335267"
     inkscape:cy="151.85281"
     inkscape:document-units="px"
     inkscape:current-layer="layer3"
     showgrid="false"
     inkscape:window-width="1918"
     inkscape:window-height="1078"
     inkscape:window-x="0"
     inkscape:window-y="0"
     inkscape:window-maximized="0"
     fit-margin-top="0"
     fit-margin-left="0"
     fit-margin-right="0"
     fit-margin-bottom="0"
     inkscape:snap-bbox="true"
     inkscape:snap-bbox-midpoints="true" />
  <metadata
     id="metadata7">
    <rdf:RDF>
      <cc:Work
         rdf:about="">
        <dc:format>image/svg+xml</dc:format>
        <dc:type
           rdf:resource="http://purl.org/dc/dcmitype/StillImage" />
        <dc:title></dc:title>
      </cc:Work>
    </rdf:RDF>
  </metadata>
  <g
     inkscape:groupmode="layer"
     id="layer2"
     inkscape:label="edges"
     style="display:inline"
     transform="translate(-51,-83.362183)">
    <rect
       style="color:#000000;fill:#cccccc;stroke:#cccccc;stroke-width:0.95658976;stroke-linecap:butt;stroke-linejoin:bevel;stroke-miterlimit:4;stroke-opacity:1;stroke-dasharray:none;stroke-dashoffset:0;marker:none;visibility:visible;display:inline;overflow:visible;enable-background:accumulate"
       id="rect4021"
       width="140.04341"
       height="27.443411"
       x="218.37868"
       y="82.074387"
       inkscape:transform-center-x="-50.111144"
       transform="matrix(0.71079629,0.70339792,-0.70339792,0.71079629,0,0)"
       inkscape:transform-center-y="49.589558"
       inkscape:export-filename="/home/mfshick/Documents/Code/Android/Projects/LockPatternGenerator/media/large_icon.png"
       inkscape:export-xdpi="168.17519"
       inkscape:export-ydpi="168.17519" />
    <rect
       style="color:#000000;fill:#cccccc;stroke:#cccccc;stroke-width:0.95658976;stroke-linecap:butt;stroke-linejoin:bevel;stroke-miterlimit:4;stroke-opacity:1;stroke-dasharray:none;stroke-dashoffset:0;marker:none;visibility:visible;display:inline;overflow:visible;enable-background:accumulate"
       id="rect4021-8"
       width="140.04341"
       height="27.443411"
       x="-48.327942"
       y="346.00497"
       inkscape:transform-center-x="50.111148"
       transform="matrix(-0.71079629,0.70339792,0.70339792,0.71079629,0,0)"
       inkscape:transform-center-y="49.589555"
       inkscape:export-filename="/home/mfshick/Documents/Code/Android/Projects/LockPatternGenerator/media/large_icon.png"
       inkscape:export-xdpi="168.17519"
       inkscape:export-ydpi="168.17519" />
    <rect
       style="color:#000000;fill:#cccccc;stroke:#cccccc;stroke-width:0.95658976;stroke-linecap:butt;stroke-linejoin:bevel;stroke-miterlimit:4;stroke-opacity:1;stroke-dasharray:none;stroke-dashoffset:0;marker:none;visibility:visible;display:inline;overflow:visible;enable-background:accumulate"
       id="rect4021-8-4"
       width="140.04341"
       height="27.443411"
       x="-359.16193"
       y="31.901621"
       inkscape:transform-center-x="50.111156"
       transform="matrix(-0.71079629,-0.70339792,0.70339792,-0.71079629,0,0)"
       inkscape:transform-center-y="-49.589561"
       inkscape:export-filename="/home/mfshick/Documents/Code/Android/Projects/LockPatternGenerator/media/large_icon.png"
       inkscape:export-xdpi="168.17519"
       inkscape:export-ydpi="168.17519" />
  </g>
  <g
     inkscape:label="nodes"
     inkscape:groupmode="layer"
     id="layer1"
     style="display:inline"
     transform="translate(-51,-83.362183)">
    <path
       sodipodi:type="arc"
       style="color:#000000;fill:#000000;stroke:#999999;stroke-width:6;stroke-linecap:butt;stroke-linejoin:bevel;stroke-miterlimit:4;stroke-opacity:1;stroke-dasharray:none;stroke-dashoffset:0;marker:none;visibility:visible;display:inline;overflow:visible;enable-background:accumulate"
       id="path2985"
       sodipodi:cx="89"
       sodipodi:cy="121.36218"
       sodipodi:rx="35"
       sodipodi:ry="35"
       d="m 124,121.36218 c 0,19.32997 -15.67003,35 -35,35 -19.329966,0 -35,-15.67003 -35,-35 0,-19.32996 15.670034,-34.999997 35,-34.999997 19.32997,0 35,15.670037 35,34.999997 z"
       inkscape:export-filename="/home/mfshick/Documents/Code/Android/Projects/LockPatternGenerator/media/large_icon.png"
       inkscape:export-xdpi="168.17519"
       inkscape:export-ydpi="168.17519" />
    <path
       sodipodi:type="arc"
       style="color:#000000;fill:#000000;stroke:#00cc00;stroke-width:6;stroke-linecap:butt;stroke-linejoin:bevel;stroke-miterlimit:4;stroke-opacity:1;stroke-dasharray:none;stroke-dashoffset:0;marker:none;visibility:visible;display:inline;overflow:visible;enable-background:accumulate"
       id="path2985-6"
       sodipodi:cx="89"
       sodipodi:cy="121.36218"
       sodipodi:rx="35"
       sodipodi:ry="35"
       d="m 124,121.36218 c 0,19.32997 -15.67003,35 -35,35 -19.329966,0 -35,-15.67003 -35,-35 0,-19.32996 15.670034,-34.999997 35,-34.999997 19.32997,0 35,15.670037 35,34.999997 z"
       transform="translate(100,0)"
       inkscape:export-filename="/home/mfshick/Documents/Code/Android/Projects/LockPatternGenerator/media/large_icon.png"
       inkscape:export-xdpi="168.17519"
       inkscape:export-ydpi="168.17519" />
    <path
       sodipodi:type="arc"
       style="color:#000000;fill:#000000;stroke:#999999;stroke-width:6;stroke-linecap:butt;stroke-linejoin:bevel;stroke-miterlimit:4;stroke-opacity:1;stroke-dasharray:none;stroke-dashoffset:0;marker:none;visibility:visible;display:inline;overflow:visible;enable-background:accumulate"
       id="path2985-6-5"
       sodipodi:cx="89"
       sodipodi:cy="121.36218"
       sodipodi:rx="35"
       sodipodi:ry="35"
       d="m 124,121.36218 c 0,19.32997 -15.67003,35 -35,35 -19.329966,0 -35,-15.67003 -35,-35 0,-19.32996 15.670034,-34.999997 35,-34.999997 19.32997,0 35,15.670037 35,34.999997 z"
       transform="translate(200,0)"
       inkscape:export-filename="/home/mfshick/Documents/Code/Android/Projects/LockPatternGenerator/media/large_icon.png"
       inkscape:export-xdpi="168.17519"
       inkscape:export-ydpi="168.17519" />
    <path
       sodipodi:type="arc"
       style="color:#000000;fill:#000000;stroke:#00cc00;stroke-width:6;stroke-linecap:butt;stroke-linejoin:bevel;stroke-miterlimit:4;stroke-opacity:1;stroke-dasharray:none;stroke-dashoffset:0;marker:none;visibility:visible;display:inline;overflow:visible;enable-background:accumulate"
       id="path2985-69"
       sodipodi:cx="89"
       sodipodi:cy="121.36218"
       sodipodi:rx="35"
       sodipodi:ry="35"
       d="m 124,121.36218 c 0,19.32997 -15.67003,35 -35,35 -19.329966,0 -35,-15.67003 -35,-35 0,-19.32996 15.670034,-34.999997 35,-34.999997 19.32997,0 35,15.670037 35,34.999997 z"
       transform="translate(0,100)"
       inkscape:export-filename="/home/mfshick/Documents/Code/Android/Projects/LockPatternGenerator/media/large_icon.png"
       inkscape:export-xdpi="168.17519"
       inkscape:export-ydpi="168.17519" />
    <path
       sodipodi:type="arc"
       style="color:#000000;fill:#000000;stroke:#999999;stroke-width:6;stroke-linecap:butt;stroke-linejoin:bevel;stroke-miterlimit:4;stroke-opacity:1;stroke-dasharray:none;stroke-dashoffset:0;marker:none;visibility:visible;display:inline;overflow:visible;enable-background:accumulate"
       id="path2985-6-3"
       sodipodi:cx="89"
       sodipodi:cy="121.36218"
       sodipodi:rx="35"
       sodipodi:ry="35"
       d="m 124,121.36218 c 0,19.32997 -15.67003,35 -35,35 -19.329966,0 -35,-15.67003 -35,-35 0,-19.32996 15.670034,-34.999997 35,-34.999997 19.32997,0 35,15.670037 35,34.999997 z"
       transform="translate(100,100)"
       inkscape:export-filename="/home/mfshick/Documents/Code/Android/Projects/LockPatternGenerator/media/large_icon.png"
       inkscape:export-xdpi="168.17519"
       inkscape:export-ydpi="168.17519" />
    <path
       sodipodi:type="arc"
       style="color:#000000;fill:#000000;stroke:#00cc00;stroke-width:6;stroke-linecap:butt;stroke-linejoin:bevel;stroke-miterlimit:4;stroke-opacity:1;stroke-dasharray:none;stroke-dashoffset:0;marker:none;visibility:visible;display:inline;overflow:visible;enable-background:accumulate"
       id="path2985-6-5-7"
       sodipodi:cx="89"
       sodipodi:cy="121.36218"
       sodipodi:rx="35"
       sodipodi:ry="35"
       d="m 124,121.36218 c 0,19.32997 -15.67003,35 -35,35 -19.329966,0 -35,-15.67003 -35,-35 0,-19.32996 15.670034,-34.999997 35,-34.999997 19.32997,0 35,15.670037 35,34.999997 z"
       transform="translate(200,100)"
       inkscape:export-filename="/home/mfshick/Documents/Code/Android/Projects/LockPatternGenerator/media/large_icon.png"
       inkscape:export-xdpi="168.17519"
       inkscape:export-ydpi="168.17519" />
    <path
       sodipodi:type="arc"
       style="color:#000000;fill:#000000;stroke:#999999;stroke-width:6;stroke-linecap:butt;stroke-linejoin:bevel;stroke-miterlimit:4;stroke-opacity:1;stroke-dasharray:none;stroke-dashoffset:0;marker:none;visibility:visible;display:inline;overflow:visible;enable-background:accumulate"
       id="path2985-69-4"
       sodipodi:cx="89"
       sodipodi:cy="121.36218"
       sodipodi:rx="35"
       sodipodi:ry="35"
       d="m 124,121.36218 c 0,19.32997 -15.67003,35 -35,35 -19.329966,0 -35,-15.67003 -35,-35 0,-19.32996 15.670034,-34.999997 35,-34.999997 19.32997,0 35,15.670037 35,34.999997 z"
       transform="translate(0,200)"
       inkscape:export-filename="/home/mfshick/Documents/Code/Android/Projects/LockPatternGenerator/media/large_icon.png"
       inkscape:export-xdpi="168.17519"
       inkscape:export-ydpi="168.17519" />
    <path
       sodipodi:type="arc"
       style="color:#000000;fill:#000000;stroke:#00cc00;stroke-width:6;stroke-linecap:butt;stroke-linejoin:bevel;stroke-miterlimit:4;stroke-opacity:1;stroke-dasharray:none;stroke-dashoffset:0;marker:none;visibility:visible;display:inline;overflow:visible;enable-background:accumulate"
       id="path2985-6-3-5"
       sodipodi:cx="89"
       sodipodi:cy="121.36218"
       sodipodi:rx="35"
       sodipodi:ry="35"
       d="m 124,121.36218 c 0,19.32997 -15.67003,35 -35,35 -19.329966,0 -35,-15.67003 -35,-35 0,-19.32996 15.670034,-34.999997 35,-34.999997 19.32997,0 35,15.670037 35,34.999997 z"
       transform="translate(100,200)"
       inkscape:export-filename="/home/mfshick/Documents/Code/Android/Projects/LockPatternGenerator/media/large_icon.png"
       inkscape:export-xdpi="168.17519"
       inkscape:export-ydpi="168.17519" />
    <path
       sodipodi:type="arc"
       style="color:#000000;fill:#000000;stroke:#999999;stroke-width:6;stroke-linecap:butt;stroke-linejoin:bevel;stroke-miterlimit:4;stroke-opacity:1;stroke-dasharray:none;stroke-dashoffset:0;marker:none;visibility:visible;display:inline;overflow:visible;enable-background:accumulate"
       id="path2985-6-5-7-2"
       sodipodi:cx="89"
       sodipodi:cy="121.36218"
       sodipodi:rx="35"
       sodipodi:ry="35"
       d="m 124,121.36218 c 0,19.32997 -15.67003,35 -35,35 -19.329966,0 -35,-15.67003 -35,-35 0,-19.32996 15.670034,-34.999997 35,-34.999997 19.32997,0 35,15.670037 35,34.999997 z"
       transform="translate(200,200)"
       inkscape:export-filename="/home/mfshick/Documents/Code/Android/Projects/LockPatternGenerator/media/large_icon.png"
       inkscape:export-xdpi="168.17519"
       inkscape:export-ydpi="168.17519" />
    <path
       sodipodi:type="arc"
       style="color:#000000;fill:#ffffff;stroke:#999999;stroke-width:1;stroke-linecap:butt;stroke-linejoin:bevel;stroke-miterlimit:4;stroke-opacity:1;stroke-dasharray:none;stroke-dashoffset:0;marker:none;visibility:visible;display:inline;overflow:visible;enable-background:accumulate"
       id="path2985-5"
       sodipodi:cx="89"
       sodipodi:cy="121.36218"
       sodipodi:rx="35"
       sodipodi:ry="35"
       d="m 124,121.36218 c 0,19.32997 -15.67003,35 -35,35 -19.329966,0 -35,-15.67003 -35,-35 0,-19.32996 15.670034,-34.999997 35,-34.999997 19.32997,0 35,15.670037 35,34.999997 z"
       transform="matrix(0.4,0,0,0.4,53.4,72.81731)"
       inkscape:export-filename="/home/mfshick/Documents/Code/Android/Projects/LockPatternGenerator/media/large_icon.png"
       inkscape:export-xdpi="168.17519"
       inkscape:export-ydpi="168.17519" />
    <path
       sodipodi:type="arc"
       style="color:#000000;fill:#ffffff;stroke:#999999;stroke-width:1;stroke-linecap:butt;stroke-linejoin:bevel;stroke-miterlimit:4;stroke-opacity:1;stroke-dasharray:none;stroke-dashoffset:0;marker:none;visibility:visible;display:inline;overflow:visible;enable-background:accumulate"
       id="path2985-6-4"
       sodipodi:cx="89"
       sodipodi:cy="121.36218"
       sodipodi:rx="35"
       sodipodi:ry="35"
       d="m 124,121.36218 c 0,19.32997 -15.67003,35 -35,35 -19.329966,0 -35,-15.67003 -35,-35 0,-19.32996 15.670034,-34.999997 35,-34.999997 19.32997,0 35,15.670037 35,34.999997 z"
       transform="matrix(0.4,0,0,0.4,153.4,72.81731)"
       inkscape:export-filename="/home/mfshick/Documents/Code/Android/Projects/LockPatternGenerator/media/large_icon.png"
       inkscape:export-xdpi="168.17519"
       inkscape:export-ydpi="168.17519" />
    <path
       sodipodi:type="arc"
       style="color:#000000;fill:#ffffff;stroke:#999999;stroke-width:1;stroke-linecap:butt;stroke-linejoin:bevel;stroke-miterlimit:4;stroke-opacity:1;stroke-dasharray:none;stroke-dashoffset:0;marker:none;visibility:visible;display:inline;overflow:visible;enable-background:accumulate"
       id="path2985-6-5-74"
       sodipodi:cx="89"
       sodipodi:cy="121.36218"
       sodipodi:rx="35"
       sodipodi:ry="35"
       d="m 124,121.36218 c 0,19.32997 -15.67003,35 -35,35 -19.329966,0 -35,-15.67003 -35,-35 0,-19.32996 15.670034,-34.999997 35,-34.999997 19.32997,0 35,15.670037 35,34.999997 z"
       transform="matrix(0.4,0,0,0.4,253.4,72.81731)"
       inkscape:export-filename="/home/mfshick/Documents/Code/Android/Projects/LockPatternGenerator/media/large_icon.png"
       inkscape:export-xdpi="168.17519"
       inkscape:export-ydpi="168.17519" />
    <path
       sodipodi:type="arc"
       style="color:#000000;fill:#ffffff;stroke:#999999;stroke-width:1;stroke-linecap:butt;stroke-linejoin:bevel;stroke-miterlimit:4;stroke-opacity:1;stroke-dasharray:none;stroke-dashoffset:0;marker:none;visibility:visible;display:inline;overflow:visible;enable-background:accumulate"
       id="path2985-69-43"
       sodipodi:cx="89"
       sodipodi:cy="121.36218"
       sodipodi:rx="35"
       sodipodi:ry="35"
       d="m 124,121.36218 c 0,19.32997 -15.67003,35 -35,35 -19.329966,0 -35,-15.67003 -35,-35 0,-19.32996 15.670034,-34.999997 35,-34.999997 19.32997,0 35,15.670037 35,34.999997 z"
       transform="matrix(0.4,0,0,0.4,53.4,172.81731)"
       inkscape:export-filename="/home/mfshick/Documents/Code/Android/Projects/LockPatternGenerator/media/large_icon.png"
       inkscape:export-xdpi="168.17519"
       inkscape:export-ydpi="168.17519" />
    <path
       sodipodi:type="arc"
       style="color:#000000;fill:#ffffff;stroke:#999999;stroke-width:1;stroke-linecap:butt;stroke-linejoin:bevel;stroke-miterlimit:4;stroke-opacity:1;stroke-dasharray:none;stroke-dashoffset:0;marker:none;visibility:visible;display:inline;overflow:visible;enable-background:accumulate"
       id="path2985-6-3-0"
       sodipodi:cx="89"
       sodipodi:cy="121.36218"
       sodipodi:rx="35"
       sodipodi:ry="35"
       d="m 124,121.36218 c 0,19.32997 -15.67003,35 -35,35 -19.329966,0 -35,-15.67003 -35,-35 0,-19.32996 15.670034,-34.999997 35,-34.999997 19.32997,0 35,15.670037 35,34.999997 z"
       transform="matrix(0.4,0,0,0.4,153.4,172.81731)"
       inkscape:export-filename="/home/mfshick/Documents/Code/Android/Projects/LockPatternGenerator/media/large_icon.png"
       inkscape:export-xdpi="168.17519"
       inkscape:export-ydpi="168.17519" />
    <path
       sodipodi:type="arc"
       style="color:#000000;fill:#ffffff;stroke:#999999;stroke-width:1;stroke-linecap:butt;stroke-linejoin:bevel;stroke-miterlimit:4;stroke-opacity:1;stroke-dasharray:none;stroke-dashoffset:0;marker:none;visibility:visible;display:inline;overflow:visible;enable-background:accumulate"
       id="path2985-6-5-7-7"
       sodipodi:cx="89"
       sodipodi:cy="121.36218"
       sodipodi:rx="35"
       sodipodi:ry="35"
       d="m 124,121.36218 c 0,19.32997 -15.67003,35 -35,35 -19.329966,0 -35,-15.67003 -35,-35 0,-19.32996 15.670034,-34.999997 35,-34.999997 19.32997,0 35,15.670037 35,34.999997 z"
       transform="matrix(0.4,0,0,0.4,253.4,172.81731)"
       inkscape:export-filename="/home/mfshick/Documents/Code/Android/Projects/LockPatternGenerator/media/large_icon.png"
       inkscape:export-xdpi="168.17519"
       inkscape:export-ydpi="168.17519" />
    <path
       sodipodi:type="arc"
       style="color:#000000;fill:#ffffff;stroke:#999999;stroke-width:1;stroke-linecap:butt;stroke-linejoin:bevel;stroke-miterlimit:4;stroke-opacity:1;stroke-dasharray:none;stroke-dashoffset:0;marker:none;visibility:visible;display:inline;overflow:visible;enable-background:accumulate"
       id="path2985-69-4-8"
       sodipodi:cx="89"
       sodipodi:cy="121.36218"
       sodipodi:rx="35"
       sodipodi:ry="35"
       d="m 124,121.36218 c 0,19.32997 -15.67003,35 -35,35 -19.329966,0 -35,-15.67003 -35,-35 0,-19.32996 15.670034,-34.999997 35,-34.999997 19.32997,0 35,15.670037 35,34.999997 z"
       transform="matrix(0.4,0,0,0.4,53.4,272.81731)"
       inkscape:export-filename="/home/mfshick/Documents/Code/Android/Projects/LockPatternGenerator/media/large_icon.png"
       inkscape:export-xdpi="168.17519"
       inkscape:export-ydpi="168.17519" />
    <path
       sodipodi:type="arc"
       style="color:#000000;fill:#ffffff;stroke:#999999;stroke-width:1;stroke-linecap:butt;stroke-linejoin:bevel;stroke-miterlimit:4;stroke-opacity:1;stroke-dasharray:none;stroke-dashoffset:0;marker:none;visibility:visible;display:inline;overflow:visible;enable-background:accumulate"
       id="path2985-6-3-5-6"
       sodipodi:cx="89"
       sodipodi:cy="121.36218"
       sodipodi:rx="35"
       sodipodi:ry="35"
       d="m 124,121.36218 c 0,19.32997 -15.67003,35 -35,35 -19.329966,0 -35,-15.67003 -35,-35 0,-19.32996 15.670034,-34.999997 35,-34.999997 19.32997,0 35,15.670037 35,34.999997 z"
       transform="matrix(0.4,0,0,0.4,153.4,272.81731)"
       inkscape:export-filename="/home/mfshick/Documents/Code/Android/Projects/LockPatternGenerator/media/large_icon.png"
       inkscape:export-xdpi="168.17519"
       inkscape:export-ydpi="168.17519" />
    <path
       sodipodi:type="arc"
       style="color:#000000;fill:#ffffff;stroke:#999999;stroke-width:1;stroke-linecap:butt;stroke-linejoin:bevel;stroke-miterlimit:4;stroke-opacity:1;stroke-dasharray:none;stroke-dashoffset:0;marker:none;visibility:visible;display:inline;overflow:visible;enable-background:accumulate"
       id="path2985-6-5-7-2-8"
       sodipodi:cx="89"
       sodipodi:cy="121.36218"
       sodipodi:rx="35"
       sodipodi:ry="35"
       d="m 124,121.36218 c 0,19.32997 -15.67003,35 -35,35 -19.329966,0 -35,-15.67003 -35,-35 0,-19.32996 15.670034,-34.999997 35,-34.999997 19.32997,0 35,15.670037 35,34.999997 z"
       transform="matrix(0.4,0,0,0.4,253.4,272.81731)"
       inkscape:export-filename="/home/mfshick/Documents/Code/Android/Projects/LockPatternGenerator/media/large_icon.png"
       inkscape:export-xdpi="168.17519"
       inkscape:export-ydpi="168.17519" />
  </g>
  <g
     inkscape:groupmode="layer"
     id="layer3"
     inkscape:label="arrows"
     transform="translate(-51,-83.362183)">
    <path
       sodipodi:type="star"
       style="color:#000000;fill:#00cc00;fill-opacity:1;stroke:none;stroke-width:1;marker:none;visibility:visible;display:inline;overflow:visible;enable-background:accumulate"
       id="path4062"
       sodipodi:sides="3"
       sodipodi:cx="427"
       sodipodi:cy="236.36218"
       sodipodi:r1="39.012817"
       sodipodi:r2="19.506409"
       sodipodi:arg1="0"
       sodipodi:arg2="1.0471976"
       inkscape:flatsided="true"
       inkscape:rounded="0"
       inkscape:randomized="0"
       d="m 466.01282,236.36218 -58.51923,33.78609 0,-67.57218 z"
       inkscape:transform-center-x="-13.140686"
       transform="matrix(0.11210119,0.11210119,-0.17071654,0.17071654,96.414988,148.0753)"
       inkscape:export-filename="/home/mfshick/Documents/Code/Android/Projects/LockPatternGenerator/media/large_icon.png"
       inkscape:export-xdpi="168.17519"
       inkscape:export-ydpi="168.17519"
       inkscape:transform-center-y="13.140687" />
    <path
       sodipodi:type="star"
       style="color:#000000;fill:#00cc00;fill-opacity:1;stroke:none;stroke-width:1;marker:none;visibility:visible;display:inline;overflow:visible;enable-background:accumulate"
       id="path4062-3"
       sodipodi:sides="3"
       sodipodi:cx="427"
       sodipodi:cy="236.36218"
       sodipodi:r1="39.012817"
       sodipodi:r2="19.506409"
       sodipodi:arg1="0"
       sodipodi:arg2="1.0471976"
       inkscape:flatsided="true"
       inkscape:rounded="0"
       inkscape:randomized="0"
       d="m 466.01282,236.36218 -58.51923,33.78609 0,-67.57218 z"
       inkscape:transform-center-x="-13.140676"
       transform="matrix(0.11210119,-0.11210119,0.17071654,0.17071654,115.71311,313.9472)"
       inkscape:export-filename="/home/mfshick/Documents/Code/Android/Projects/LockPatternGenerator/media/large_icon.png"
       inkscape:export-xdpi="168.17519"
       inkscape:export-ydpi="168.17519"
       inkscape:transform-center-y="-13.140677" />
    <path
       sodipodi:type="star"
       style="color:#000000;fill:#00cc00;fill-opacity:1;stroke:none;stroke-width:1;marker:none;visibility:visible;display:inline;overflow:visible;enable-background:accumulate"
       id="path4062-3-1"
       sodipodi:sides="3"
       sodipodi:cx="427"
       sodipodi:cy="236.36218"
       sodipodi:r1="39.012817"
       sodipodi:r2="19.506409"
       sodipodi:arg1="0"
       sodipodi:arg2="1.0471976"
       inkscape:flatsided="true"
       inkscape:rounded="0"
       inkscape:randomized="0"
       d="m 466.01282,236.36218 -58.51923,33.78609 0,-67.57218 z"
       inkscape:transform-center-x="12.910998"
       transform="matrix(-0.11210119,-0.11210119,0.17071654,-0.17071654,281.8147,294.87875)"
       inkscape:export-filename="/home/mfshick/Documents/Code/Android/Projects/LockPatternGenerator/media/large_icon.png"
       inkscape:export-xdpi="168.17519"
       inkscape:export-ydpi="168.17519"
       inkscape:transform-center-y="-12.910997" />
  </g>
</svg>
